<mxfile host="65bd71144e">
    <diagram name="Page-1" id="SvD5SHL6qBnQfRaY49sX">
        <mxGraphModel dx="1015" dy="593" grid="1" gridSize="10" guides="1" tooltips="1" connect="1" arrows="1" fold="1" page="1" pageScale="1" pageWidth="850" pageHeight="1100" math="0" shadow="0">
            <root>
                <mxCell id="0"/>
                <mxCell id="1" parent="0"/>
                <mxCell id="0xDGPhx3X3nH7Ochr7c6-23" style="edgeStyle=orthogonalEdgeStyle;rounded=0;orthogonalLoop=1;jettySize=auto;html=1;entryX=0.5;entryY=0;entryDx=0;entryDy=0;" parent="1" edge="1">
                    <mxGeometry relative="1" as="geometry">
                        <Array as="points">
                            <mxPoint x="460" y="1030"/>
                            <mxPoint x="570" y="1030"/>
                            <mxPoint x="570" y="390"/>
                            <mxPoint x="460" y="390"/>
                        </Array>
                        <mxPoint x="460" y="410" as="targetPoint"/>
                    </mxGeometry>
                </mxCell>
                <mxCell id="HeuBBQdr4y3C9zgCAsA6-13" style="edgeStyle=orthogonalEdgeStyle;rounded=0;orthogonalLoop=1;jettySize=auto;html=1;" edge="1" parent="1">
                    <mxGeometry relative="1" as="geometry">
                        <mxPoint x="370" y="350" as="sourcePoint"/>
                        <mxPoint x="480" y="350" as="targetPoint"/>
                    </mxGeometry>
                </mxCell>
                <mxCell id="HeuBBQdr4y3C9zgCAsA6-2" value="" style="outlineConnect=0;dashed=0;verticalLabelPosition=bottom;verticalAlign=top;align=center;html=1;shape=mxgraph.aws3.management_console;fillColor=#D2D3D3;gradientColor=none;" vertex="1" parent="1">
                    <mxGeometry x="290" y="327" width="63" height="63" as="geometry"/>
                </mxCell>
                <mxCell id="HeuBBQdr4y3C9zgCAsA6-4" value="" style="outlineConnect=0;dashed=0;verticalLabelPosition=bottom;verticalAlign=top;align=center;html=1;shape=mxgraph.aws3.traditional_server;fillColor=#7D7C7C;gradientColor=none;" vertex="1" parent="1">
                    <mxGeometry x="490" y="327" width="46.5" height="63" as="geometry"/>
                </mxCell>
                <mxCell id="HeuBBQdr4y3C9zgCAsA6-5" value="" style="outlineConnect=0;dashed=0;verticalLabelPosition=bottom;verticalAlign=top;align=center;html=1;shape=mxgraph.aws3.generic_database;fillColor=#7D7C7C;gradientColor=none;" vertex="1" parent="1">
                    <mxGeometry x="670" y="320" width="49.5" height="64.5" as="geometry"/>
                </mxCell>
                <mxCell id="HeuBBQdr4y3C9zgCAsA6-7" value="Klient" style="text;html=1;align=center;verticalAlign=middle;resizable=0;points=[];autosize=1;strokeColor=none;fillColor=none;" vertex="1" parent="1">
                    <mxGeometry x="296.5" y="408" width="50" height="30" as="geometry"/>
                </mxCell>
                <mxCell id="HeuBBQdr4y3C9zgCAsA6-8" value="Server" style="text;html=1;align=center;verticalAlign=middle;resizable=0;points=[];autosize=1;strokeColor=none;fillColor=none;" vertex="1" parent="1">
                    <mxGeometry x="483.25" y="408" width="60" height="30" as="geometry"/>
                </mxCell>
                <mxCell id="HeuBBQdr4y3C9zgCAsA6-9" value="Database" style="text;html=1;align=center;verticalAlign=middle;resizable=0;points=[];autosize=1;strokeColor=none;fillColor=none;" vertex="1" parent="1">
                    <mxGeometry x="659.75" y="408" width="70" height="30" as="geometry"/>
                </mxCell>
                <mxCell id="HeuBBQdr4y3C9zgCAsA6-10" value="Søg efter en video (1 server):" style="text;html=1;align=center;verticalAlign=middle;resizable=0;points=[];autosize=1;strokeColor=none;fillColor=none;" vertex="1" parent="1">
                    <mxGeometry x="222.5" y="268" width="180" height="30" as="geometry"/>
                </mxCell>
                <mxCell id="2" value="Sender forespørgsel" style="text;html=1;align=center;verticalAlign=middle;resizable=0;points=[];autosize=1;strokeColor=none;fillColor=none;" vertex="1" parent="1">
                    <mxGeometry x="355" y="315" width="130" height="30" as="geometry"/>
                </mxCell>
                <mxCell id="4" style="edgeStyle=orthogonalEdgeStyle;rounded=0;orthogonalLoop=1;jettySize=auto;html=1;" edge="1" parent="1">
                    <mxGeometry relative="1" as="geometry">
                        <mxPoint x="551.5" y="347" as="sourcePoint"/>
                        <mxPoint x="661.5" y="347" as="targetPoint"/>
                    </mxGeometry>
                </mxCell>
                <mxCell id="5" value="Søger efter&lt;br&gt;relevante videoer" style="text;html=1;align=center;verticalAlign=middle;resizable=0;points=[];autosize=1;strokeColor=none;fillColor=none;" vertex="1" parent="1">
                    <mxGeometry x="543.25" y="298" width="120" height="40" as="geometry"/>
                </mxCell>
                <mxCell id="6" value="" style="endArrow=classic;html=1;" edge="1" parent="1">
                    <mxGeometry width="50" height="50" relative="1" as="geometry">
                        <mxPoint x="480" y="375" as="sourcePoint"/>
                        <mxPoint x="370" y="375" as="targetPoint"/>
                    </mxGeometry>
                </mxCell>
                <mxCell id="7" value="&lt;font style=&quot;font-size: 12px;&quot;&gt;Modtager&lt;br&gt;relevante videoer&lt;/font&gt;" style="edgeStyle=orthogonalEdgeStyle;rounded=0;orthogonalLoop=1;jettySize=auto;html=1;endArrow=none;endFill=0;startArrow=block;startFill=1;direction=south;" vertex="1" parent="1">
                    <mxGeometry relative="1" as="geometry">
                        <mxPoint x="974.75" y="774" as="sourcePoint"/>
                        <mxPoint x="1084.75" y="774" as="targetPoint"/>
                        <mxPoint x="425" y="405" as="offset"/>
                    </mxGeometry>
                </mxCell>
                <mxCell id="9" value="Returnerer&lt;br&gt;relevante videoer" style="text;html=1;align=center;verticalAlign=middle;resizable=0;points=[];autosize=1;strokeColor=none;fillColor=none;" vertex="1" parent="1">
                    <mxGeometry x="543.25" y="384.5" width="120" height="40" as="geometry"/>
                </mxCell>
                <mxCell id="10" style="edgeStyle=orthogonalEdgeStyle;rounded=0;orthogonalLoop=1;jettySize=auto;html=1;startArrow=block;startFill=1;endArrow=none;endFill=0;" edge="1" parent="1">
                    <mxGeometry relative="1" as="geometry">
                        <mxPoint x="549.75" y="370" as="sourcePoint"/>
                        <mxPoint x="659.75" y="370" as="targetPoint"/>
                    </mxGeometry>
                </mxCell>
                <mxCell id="12" style="rounded=0;orthogonalLoop=1;jettySize=auto;html=1;" edge="1" parent="1">
                    <mxGeometry relative="1" as="geometry">
                        <mxPoint x="370" y="590" as="sourcePoint"/>
                        <mxPoint x="480" y="547" as="targetPoint"/>
                    </mxGeometry>
                </mxCell>
                <mxCell id="13" value="" style="outlineConnect=0;dashed=0;verticalLabelPosition=bottom;verticalAlign=top;align=center;html=1;shape=mxgraph.aws3.management_console;fillColor=#D2D3D3;gradientColor=none;" vertex="1" parent="1">
                    <mxGeometry x="292" y="590" width="63" height="63" as="geometry"/>
                </mxCell>
                <mxCell id="14" value="" style="outlineConnect=0;dashed=0;verticalLabelPosition=bottom;verticalAlign=top;align=center;html=1;shape=mxgraph.aws3.traditional_server;fillColor=#7D7C7C;gradientColor=none;" vertex="1" parent="1">
                    <mxGeometry x="490" y="524" width="46.5" height="63" as="geometry"/>
                </mxCell>
                <mxCell id="15" value="" style="outlineConnect=0;dashed=0;verticalLabelPosition=bottom;verticalAlign=top;align=center;html=1;shape=mxgraph.aws3.generic_database;fillColor=#7D7C7C;gradientColor=none;" vertex="1" parent="1">
                    <mxGeometry x="670" y="517" width="49.5" height="64.5" as="geometry"/>
                </mxCell>
                <mxCell id="16" value="Klient" style="text;html=1;align=center;verticalAlign=middle;resizable=0;points=[];autosize=1;strokeColor=none;fillColor=none;" vertex="1" parent="1">
                    <mxGeometry x="298.5" y="671" width="50" height="30" as="geometry"/>
                </mxCell>
                <mxCell id="17" value="Server" style="text;html=1;align=center;verticalAlign=middle;resizable=0;points=[];autosize=1;strokeColor=none;fillColor=none;" vertex="1" parent="1">
                    <mxGeometry x="483.25" y="605" width="60" height="30" as="geometry"/>
                </mxCell>
                <mxCell id="18" value="Database" style="text;html=1;align=center;verticalAlign=middle;resizable=0;points=[];autosize=1;strokeColor=none;fillColor=none;" vertex="1" parent="1">
                    <mxGeometry x="659.75" y="605" width="70" height="30" as="geometry"/>
                </mxCell>
                <mxCell id="19" value="Søg efter en video (flere servere, version 1):" style="text;html=1;align=center;verticalAlign=middle;resizable=0;points=[];autosize=1;strokeColor=none;fillColor=none;" vertex="1" parent="1">
                    <mxGeometry x="191.5" y="465" width="260" height="30" as="geometry"/>
                </mxCell>
                <mxCell id="20" value="Sender forespørgsel" style="text;html=1;align=center;verticalAlign=middle;resizable=0;points=[];autosize=1;strokeColor=none;fillColor=none;" vertex="1" parent="1">
                    <mxGeometry x="330" y="520" width="130" height="30" as="geometry"/>
                </mxCell>
                <mxCell id="21" style="edgeStyle=orthogonalEdgeStyle;rounded=0;orthogonalLoop=1;jettySize=auto;html=1;" edge="1" parent="1">
                    <mxGeometry relative="1" as="geometry">
                        <mxPoint x="551.5" y="544" as="sourcePoint"/>
                        <mxPoint x="661.5" y="544" as="targetPoint"/>
                    </mxGeometry>
                </mxCell>
                <mxCell id="22" value="Søger efter&lt;br&gt;relevante videoer" style="text;html=1;align=center;verticalAlign=middle;resizable=0;points=[];autosize=1;strokeColor=none;fillColor=none;" vertex="1" parent="1">
                    <mxGeometry x="543.25" y="495" width="120" height="40" as="geometry"/>
                </mxCell>
                <mxCell id="23" value="" style="endArrow=classic;html=1;" edge="1" parent="1">
                    <mxGeometry width="50" height="50" relative="1" as="geometry">
                        <mxPoint x="480" y="572" as="sourcePoint"/>
                        <mxPoint x="370" y="610" as="targetPoint"/>
                    </mxGeometry>
                </mxCell>
                <mxCell id="24" value="&lt;font style=&quot;font-size: 12px;&quot;&gt;Modtager&lt;br&gt;relevante videoer&lt;/font&gt;" style="edgeStyle=orthogonalEdgeStyle;rounded=0;orthogonalLoop=1;jettySize=auto;html=1;endArrow=none;endFill=0;startArrow=block;startFill=1;direction=south;" vertex="1" parent="1">
                    <mxGeometry relative="1" as="geometry">
                        <mxPoint x="974.75" y="990.5" as="sourcePoint"/>
                        <mxPoint x="1084.75" y="990.5" as="targetPoint"/>
                        <mxPoint x="425" y="622" as="offset"/>
                    </mxGeometry>
                </mxCell>
                <mxCell id="25" value="Returnerer&lt;br&gt;relevante videoer" style="text;html=1;align=center;verticalAlign=middle;resizable=0;points=[];autosize=1;strokeColor=none;fillColor=none;" vertex="1" parent="1">
                    <mxGeometry x="543.25" y="581.5" width="120" height="40" as="geometry"/>
                </mxCell>
                <mxCell id="26" style="edgeStyle=orthogonalEdgeStyle;rounded=0;orthogonalLoop=1;jettySize=auto;html=1;startArrow=block;startFill=1;endArrow=none;endFill=0;" edge="1" parent="1">
                    <mxGeometry relative="1" as="geometry">
                        <mxPoint x="549.75" y="567" as="sourcePoint"/>
                        <mxPoint x="659.75" y="567" as="targetPoint"/>
                    </mxGeometry>
                </mxCell>
                <mxCell id="28" value="" style="outlineConnect=0;dashed=0;verticalLabelPosition=bottom;verticalAlign=top;align=center;html=1;shape=mxgraph.aws3.traditional_server;fillColor=#7D7C7C;gradientColor=none;" vertex="1" parent="1">
                    <mxGeometry x="485" y="664" width="46.5" height="63" as="geometry"/>
                </mxCell>
                <mxCell id="29" value="" style="outlineConnect=0;dashed=0;verticalLabelPosition=bottom;verticalAlign=top;align=center;html=1;shape=mxgraph.aws3.generic_database;fillColor=#7D7C7C;gradientColor=none;" vertex="1" parent="1">
                    <mxGeometry x="665" y="657" width="49.5" height="64.5" as="geometry"/>
                </mxCell>
                <mxCell id="30" value="Database" style="text;html=1;align=center;verticalAlign=middle;resizable=0;points=[];autosize=1;strokeColor=none;fillColor=none;" vertex="1" parent="1">
                    <mxGeometry x="654.75" y="745" width="70" height="30" as="geometry"/>
                </mxCell>
                <mxCell id="31" style="edgeStyle=orthogonalEdgeStyle;rounded=0;orthogonalLoop=1;jettySize=auto;html=1;" edge="1" parent="1">
                    <mxGeometry relative="1" as="geometry">
                        <mxPoint x="546.5" y="684" as="sourcePoint"/>
                        <mxPoint x="656.5" y="684" as="targetPoint"/>
                    </mxGeometry>
                </mxCell>
                <mxCell id="32" value="Søger efter&lt;br&gt;relevante videoer" style="text;html=1;align=center;verticalAlign=middle;resizable=0;points=[];autosize=1;strokeColor=none;fillColor=none;" vertex="1" parent="1">
                    <mxGeometry x="538.25" y="635" width="120" height="40" as="geometry"/>
                </mxCell>
                <mxCell id="33" value="Returnerer&lt;br&gt;relevante videoer" style="text;html=1;align=center;verticalAlign=middle;resizable=0;points=[];autosize=1;strokeColor=none;fillColor=none;" vertex="1" parent="1">
                    <mxGeometry x="538.25" y="721.5" width="120" height="40" as="geometry"/>
                </mxCell>
                <mxCell id="34" style="edgeStyle=orthogonalEdgeStyle;rounded=0;orthogonalLoop=1;jettySize=auto;html=1;startArrow=block;startFill=1;endArrow=none;endFill=0;" edge="1" parent="1">
                    <mxGeometry relative="1" as="geometry">
                        <mxPoint x="544.75" y="707" as="sourcePoint"/>
                        <mxPoint x="654.75" y="707" as="targetPoint"/>
                    </mxGeometry>
                </mxCell>
                <mxCell id="35" style="rounded=0;orthogonalLoop=1;jettySize=auto;html=1;exitX=0.149;exitY=0.985;exitDx=0;exitDy=0;exitPerimeter=0;" edge="1" parent="1" source="36">
                    <mxGeometry relative="1" as="geometry">
                        <mxPoint x="380" y="713" as="sourcePoint"/>
                        <mxPoint x="480" y="700" as="targetPoint"/>
                    </mxGeometry>
                </mxCell>
                <mxCell id="36" value="Sender forespørgsel" style="text;html=1;align=center;verticalAlign=middle;resizable=0;points=[];autosize=1;strokeColor=none;fillColor=none;" vertex="1" parent="1">
                    <mxGeometry x="353" y="653" width="130" height="30" as="geometry"/>
                </mxCell>
                <mxCell id="37" value="" style="endArrow=none;html=1;startArrow=block;startFill=1;endFill=0;" edge="1" parent="1">
                    <mxGeometry width="50" height="50" relative="1" as="geometry">
                        <mxPoint x="370" y="700" as="sourcePoint"/>
                        <mxPoint x="470" y="720" as="targetPoint"/>
                    </mxGeometry>
                </mxCell>
                <mxCell id="38" value="&lt;font style=&quot;font-size: 12px;&quot;&gt;Modtager&lt;br&gt;relevante videoer&lt;/font&gt;" style="edgeStyle=orthogonalEdgeStyle;rounded=0;orthogonalLoop=1;jettySize=auto;html=1;endArrow=none;endFill=0;startArrow=block;startFill=1;direction=south;" vertex="1" parent="1">
                    <mxGeometry relative="1" as="geometry">
                        <mxPoint x="952.25" y="1110" as="sourcePoint"/>
                        <mxPoint x="1062.25" y="1110" as="targetPoint"/>
                        <mxPoint x="403" y="742" as="offset"/>
                    </mxGeometry>
                </mxCell>
                <mxCell id="41" value="" style="outlineConnect=0;dashed=0;verticalLabelPosition=bottom;verticalAlign=top;align=center;html=1;shape=mxgraph.aws3.management_console;fillColor=#D2D3D3;gradientColor=none;" vertex="1" parent="1">
                    <mxGeometry x="260" y="834" width="63" height="63" as="geometry"/>
                </mxCell>
                <mxCell id="42" value="" style="outlineConnect=0;dashed=0;verticalLabelPosition=bottom;verticalAlign=top;align=center;html=1;shape=mxgraph.aws3.traditional_server;fillColor=#7D7C7C;gradientColor=none;" vertex="1" parent="1">
                    <mxGeometry x="485" y="834" width="46.5" height="63" as="geometry"/>
                </mxCell>
                <mxCell id="43" value="" style="outlineConnect=0;dashed=0;verticalLabelPosition=bottom;verticalAlign=top;align=center;html=1;shape=mxgraph.aws3.generic_database;fillColor=#7D7C7C;gradientColor=none;" vertex="1" parent="1">
                    <mxGeometry x="665" y="827" width="49.5" height="64.5" as="geometry"/>
                </mxCell>
                <mxCell id="44" value="Klient" style="text;html=1;align=center;verticalAlign=middle;resizable=0;points=[];autosize=1;strokeColor=none;fillColor=none;" vertex="1" parent="1">
                    <mxGeometry x="266.5" y="915" width="50" height="30" as="geometry"/>
                </mxCell>
                <mxCell id="45" value="Server" style="text;html=1;align=center;verticalAlign=middle;resizable=0;points=[];autosize=1;strokeColor=none;fillColor=none;" vertex="1" parent="1">
                    <mxGeometry x="476.5" y="1055" width="60" height="30" as="geometry"/>
                </mxCell>
                <mxCell id="46" value="Database" style="text;html=1;align=center;verticalAlign=middle;resizable=0;points=[];autosize=1;strokeColor=none;fillColor=none;" vertex="1" parent="1">
                    <mxGeometry x="654.75" y="915" width="70" height="30" as="geometry"/>
                </mxCell>
                <mxCell id="47" value="Søg efter en video (flere servere, version 2):" style="text;html=1;align=center;verticalAlign=middle;resizable=0;points=[];autosize=1;strokeColor=none;fillColor=none;" vertex="1" parent="1">
                    <mxGeometry x="186.5" y="775" width="260" height="30" as="geometry"/>
                </mxCell>
                <mxCell id="48" value="Sender forespørgsel" style="text;html=1;align=center;verticalAlign=middle;resizable=0;points=[];autosize=1;strokeColor=none;fillColor=none;" vertex="1" parent="1">
                    <mxGeometry x="330" y="815" width="130" height="30" as="geometry"/>
                </mxCell>
                <mxCell id="49" style="edgeStyle=orthogonalEdgeStyle;rounded=0;orthogonalLoop=1;jettySize=auto;html=1;" edge="1" parent="1">
                    <mxGeometry relative="1" as="geometry">
                        <mxPoint x="546.5" y="854" as="sourcePoint"/>
                        <mxPoint x="656.5" y="854" as="targetPoint"/>
                    </mxGeometry>
                </mxCell>
                <mxCell id="50" value="Søger efter&lt;br&gt;relevante videoer" style="text;html=1;align=center;verticalAlign=middle;resizable=0;points=[];autosize=1;strokeColor=none;fillColor=none;" vertex="1" parent="1">
                    <mxGeometry x="538.25" y="805" width="120" height="40" as="geometry"/>
                </mxCell>
                <mxCell id="52" value="&lt;font style=&quot;font-size: 12px;&quot;&gt;Modtager&lt;br&gt;relevante videoer&lt;/font&gt;" style="edgeStyle=orthogonalEdgeStyle;rounded=0;orthogonalLoop=1;jettySize=auto;html=1;endArrow=none;endFill=0;startArrow=block;startFill=1;direction=south;" vertex="1" parent="1">
                    <mxGeometry relative="1" as="geometry">
                        <mxPoint x="944.75" y="1264.5" as="sourcePoint"/>
                        <mxPoint x="1054.75" y="1264.5" as="targetPoint"/>
                        <mxPoint x="395" y="897" as="offset"/>
                    </mxGeometry>
                </mxCell>
                <mxCell id="53" value="Returnerer&lt;br&gt;relevante videoer" style="text;html=1;align=center;verticalAlign=middle;resizable=0;points=[];autosize=1;strokeColor=none;fillColor=none;" vertex="1" parent="1">
                    <mxGeometry x="538.25" y="891.5" width="120" height="40" as="geometry"/>
                </mxCell>
                <mxCell id="54" style="edgeStyle=orthogonalEdgeStyle;rounded=0;orthogonalLoop=1;jettySize=auto;html=1;startArrow=block;startFill=1;endArrow=none;endFill=0;" edge="1" parent="1">
                    <mxGeometry relative="1" as="geometry">
                        <mxPoint x="544.75" y="877" as="sourcePoint"/>
                        <mxPoint x="654.75" y="877" as="targetPoint"/>
                    </mxGeometry>
                </mxCell>
                <mxCell id="55" value="" style="outlineConnect=0;dashed=0;verticalLabelPosition=bottom;verticalAlign=top;align=center;html=1;shape=mxgraph.aws3.traditional_server;fillColor=#7D7C7C;gradientColor=none;" vertex="1" parent="1">
                    <mxGeometry x="480" y="974" width="46.5" height="63" as="geometry"/>
                </mxCell>
                <mxCell id="56" value="" style="outlineConnect=0;dashed=0;verticalLabelPosition=bottom;verticalAlign=top;align=center;html=1;shape=mxgraph.aws3.generic_database;fillColor=#7D7C7C;gradientColor=none;" vertex="1" parent="1">
                    <mxGeometry x="660" y="967" width="49.5" height="64.5" as="geometry"/>
                </mxCell>
                <mxCell id="57" value="Database" style="text;html=1;align=center;verticalAlign=middle;resizable=0;points=[];autosize=1;strokeColor=none;fillColor=none;" vertex="1" parent="1">
                    <mxGeometry x="649.75" y="1055" width="70" height="30" as="geometry"/>
                </mxCell>
                <mxCell id="58" style="edgeStyle=orthogonalEdgeStyle;rounded=0;orthogonalLoop=1;jettySize=auto;html=1;" edge="1" parent="1">
                    <mxGeometry relative="1" as="geometry">
                        <mxPoint x="541.5" y="994" as="sourcePoint"/>
                        <mxPoint x="651.5" y="994" as="targetPoint"/>
                    </mxGeometry>
                </mxCell>
                <mxCell id="59" value="Søger efter&lt;br&gt;relevante videoer" style="text;html=1;align=center;verticalAlign=middle;resizable=0;points=[];autosize=1;strokeColor=none;fillColor=none;" vertex="1" parent="1">
                    <mxGeometry x="533.25" y="945" width="120" height="40" as="geometry"/>
                </mxCell>
                <mxCell id="60" value="Returnerer&lt;br&gt;relevante videoer" style="text;html=1;align=center;verticalAlign=middle;resizable=0;points=[];autosize=1;strokeColor=none;fillColor=none;" vertex="1" parent="1">
                    <mxGeometry x="533.25" y="1031.5" width="120" height="40" as="geometry"/>
                </mxCell>
                <mxCell id="61" style="edgeStyle=orthogonalEdgeStyle;rounded=0;orthogonalLoop=1;jettySize=auto;html=1;startArrow=block;startFill=1;endArrow=none;endFill=0;" edge="1" parent="1">
                    <mxGeometry relative="1" as="geometry">
                        <mxPoint x="539.75" y="1017" as="sourcePoint"/>
                        <mxPoint x="649.75" y="1017" as="targetPoint"/>
                    </mxGeometry>
                </mxCell>
                <mxCell id="67" style="edgeStyle=orthogonalEdgeStyle;rounded=0;orthogonalLoop=1;jettySize=auto;html=1;" edge="1" parent="1">
                    <mxGeometry relative="1" as="geometry">
                        <mxPoint x="346.5" y="846.35" as="sourcePoint"/>
                        <mxPoint x="456.5" y="846.35" as="targetPoint"/>
                    </mxGeometry>
                </mxCell>
                <mxCell id="68" value="" style="endArrow=classic;html=1;" edge="1" parent="1">
                    <mxGeometry width="50" height="50" relative="1" as="geometry">
                        <mxPoint x="456.5" y="871.35" as="sourcePoint"/>
                        <mxPoint x="346.5" y="871.35" as="targetPoint"/>
                    </mxGeometry>
                </mxCell>
                <mxCell id="69" value="Server" style="text;html=1;align=center;verticalAlign=middle;resizable=0;points=[];autosize=1;strokeColor=none;fillColor=none;" vertex="1" parent="1">
                    <mxGeometry x="476.5" y="805" width="60" height="30" as="geometry"/>
                </mxCell>
                <mxCell id="70" style="edgeStyle=orthogonalEdgeStyle;rounded=0;orthogonalLoop=1;jettySize=auto;html=1;" edge="1" parent="1">
                    <mxGeometry relative="1" as="geometry">
                        <mxPoint x="510" y="914.9999999999999" as="sourcePoint"/>
                        <mxPoint x="510" y="960" as="targetPoint"/>
                    </mxGeometry>
                </mxCell>
                <mxCell id="71" style="edgeStyle=orthogonalEdgeStyle;rounded=0;orthogonalLoop=1;jettySize=auto;html=1;startArrow=block;startFill=1;endArrow=none;endFill=0;" edge="1" parent="1">
                    <mxGeometry relative="1" as="geometry">
                        <mxPoint x="490" y="915" as="sourcePoint"/>
                        <mxPoint x="490" y="960" as="targetPoint"/>
                    </mxGeometry>
                </mxCell>
                <mxCell id="72" value="Sender forespørgsel" style="text;html=1;align=center;verticalAlign=middle;resizable=0;points=[];autosize=1;strokeColor=none;fillColor=none;" vertex="1" parent="1">
                    <mxGeometry x="355" y="915" width="130" height="30" as="geometry"/>
                </mxCell>
                <mxCell id="73" value="&lt;font style=&quot;font-size: 12px;&quot;&gt;Modtager&lt;br&gt;relevante videoer&lt;/font&gt;" style="edgeStyle=orthogonalEdgeStyle;rounded=0;orthogonalLoop=1;jettySize=auto;html=1;endArrow=none;endFill=0;startArrow=block;startFill=1;direction=south;" vertex="1" parent="1">
                    <mxGeometry relative="1" as="geometry">
                        <mxPoint x="967.75" y="1327.5" as="sourcePoint"/>
                        <mxPoint x="1077.75" y="1327.5" as="targetPoint"/>
                        <mxPoint x="418" y="960" as="offset"/>
                    </mxGeometry>
                </mxCell>
                <mxCell id="74" value="Brugeren sender en request til&lt;br&gt;alle kendte servere, og får&lt;br&gt;et svar fra hver" style="text;html=1;align=center;verticalAlign=middle;resizable=0;points=[];autosize=1;strokeColor=none;fillColor=none;fontSize=12;" vertex="1" parent="1">
                    <mxGeometry x="80" y="605" width="180" height="60" as="geometry"/>
                </mxCell>
                <mxCell id="75" value="Brugeren sender en request til&lt;br&gt;den server de er registreret hos,&lt;br&gt;som så spørger alle servere den&lt;br&gt;kender til om samme request&lt;br&gt;(eller kigger i sin lokale cache af&lt;br&gt;den anden server)" style="text;html=1;align=center;verticalAlign=middle;resizable=0;points=[];autosize=1;strokeColor=none;fillColor=none;fontSize=12;" vertex="1" parent="1">
                    <mxGeometry x="40" y="835" width="200" height="100" as="geometry"/>
                </mxCell>
            </root>
        </mxGraphModel>
    </diagram>
</mxfile>